# xmcd
#
# Track frame offsets:
#	150
#	13876
#	32252
#	49542
#	63559
#	78862
#	97245
#	116298
#	132788
#	156191
#	173299
#	189505
#	208108
#	224144
#	244172
#
# Disc length: 3496 seconds
#
# Revision: 1
# Processed by: cddbd v1.5.2PL0 Copyright (c) Steve Scherf et al.
# Submitted via: audiograbber 1.83.01
#
DISCID=c80da60f
DTITLE=Various Artist - CB-E5-30
DYEAR=1900
DGENRE=Karaoke
TTITLE0=Travis Tritt - The Girl's Gone Wild
TTITLE1=Kenny Chesney - I Go Back
TTITLE2=Gretchen Wilson - Redneck Woman
TTITLE3=Joe Nichols - Cool To Be A Fool
TTITLE4=David Lee Murphy - Loco
TTITLE5=Joe Nichols - If Nobody Believed In You
TTITLE6=Sara Evans - Perfect
TTITLE7=Dierks Bentley - My Last Name
TTITLE8=Tim McGraw - Live Like You Were Dying
TTITLE9=Kenny Chesney and Uncle Kracker - When The Sun Goes Down
TTITLE10=Gretchen Wilson - Here For The Party
TTITLE11=Andy Griggs - She Thinks She Needs Me
TTITLE12=Trace Adkins - Hot Mama
TTITLE13=Sugarland - Baby Girl
TTITLE14=Josh Gracin - I Want To Live
EXTD=
EXTT0=
EXTT1=
EXTT2=
EXTT3=
EXTT4=
EXTT5=
EXTT6=
EXTT7=
EXTT8=
EXTT9=
EXTT10=
EXTT11=
EXTT12=
EXTT13=
EXTT14=
PLAYORDER=
